HIERARCHY
ROOT Root
{
  OFFSET 0.0 0.0 0.0
  CHANNELS 6 Xposition Yposition Zposition Zrotation Yrotation Xrotation
  JOINT Hips
  {
    OFFSET 0.0 100.0 0.0
    CHANNELS 6 Xposition Yposition Zposition Zrotation Yrotation Xrotation
    JOINT Spine1
    {
      OFFSET -0.013727 5.003763 -0.053727
      CHANNELS 3 Zrotation Yrotation Xrotation
      JOINT Spine2
      {
        OFFSET -0.0 7.125301 -0.029825
        CHANNELS 3 Zrotation Yrotation Xrotation
        JOINT Chest
        {
          OFFSET -1e-06 7.550063 -0.815971
          CHANNELS 3 Zrotation Yrotation Xrotation
          JOINT Neck1
          {
            OFFSET -0.181677 26.311295 -0.553348
            CHANNELS 3 Zrotation Yrotation Xrotation
            JOINT Neck2
            {
              OFFSET -3e-06 7.709397 2.302585
              CHANNELS 3 Zrotation Yrotation Xrotation
              JOINT Head
              {
                OFFSET -5e-06 6.128916 1.953709
                CHANNELS 3 Zrotation Yrotation Xrotation
                JOINT HeadEnd
                {
                  OFFSET 0.003598 16.065403 -1.835379
                  CHANNELS 3 Zrotation Yrotation Xrotation
                }
                JOINT Jaw
                {
                  OFFSET 0.002637 0.475592 3.094941
                  CHANNELS 3 Zrotation Yrotation Xrotation
                }
                JOINT LeftEye
                {
                  OFFSET 3.206381 5.380205 7.586883
                  CHANNELS 3 Zrotation Yrotation Xrotation
                }
                JOINT RightEye
                {
                  OFFSET -3.22244 5.361869 7.558234
                  CHANNELS 3 Zrotation Yrotation Xrotation
                }
              }
            }
          }
          JOINT LeftShoulder
          {
            OFFSET 1.621652 23.237164 5.113413
            CHANNELS 3 Zrotation Yrotation Xrotation
            JOINT LeftArm
            {
              OFFSET 14.919846 2e-06 -5.502326
              CHANNELS 3 Zrotation Yrotation Xrotation
              JOINT LeftForeArm
              {
                OFFSET 28.739307 0.0 -0.002588
                CHANNELS 3 Zrotation Yrotation Xrotation
                JOINT LeftHand
                {
                  OFFSET 27.093981 -1e-06 0.002609
                  CHANNELS 3 Zrotation Yrotation Xrotation
                  JOINT LeftHandThumb1
                  {
                    OFFSET 2.276482 -1.392045 3.191413
                    CHANNELS 3 Zrotation Yrotation Xrotation
                    JOINT LeftHandThumb2
                    {
                      OFFSET 4.012836 -1.828127 1.641654
                      CHANNELS 3 Zrotation Yrotation Xrotation
                      JOINT LeftHandThumb3
                      {
                        OFFSET 2.798515 0.0 -3e-06
                        CHANNELS 3 Zrotation Yrotation Xrotation
                        JOINT LeftHandThumbEnd
                        {
                          OFFSET 3.180793 -4e-06 4e-06
                          CHANNELS 3 Zrotation Yrotation Xrotation
                        }
                      }
                    }
                  }
                  JOINT LeftHandIndex1
                  {
                    OFFSET 3.247555 -0.531998 2.296169
                    CHANNELS 3 Zrotation Yrotation Xrotation
                    JOINT LeftHandIndex2
                    {
                      OFFSET 6.364578 0.01206 0.1786
                      CHANNELS 3 Zrotation Yrotation Xrotation
                      JOINT LeftHandIndex3
                      {
                        OFFSET 3.662364 0.0 0.0
                        CHANNELS 3 Zrotation Yrotation Xrotation
                        JOINT LeftHandIndex4
                        {
                          OFFSET 2.329242 4e-06 4e-06
                          CHANNELS 3 Zrotation Yrotation Xrotation
                          JOINT LeftHandIndexEnd
                          {
                            OFFSET 2.759615 -0.180537 -0.113024
                            CHANNELS 3 Zrotation Yrotation Xrotation
                          }
                        }
                      }
                    }
                  }
                  JOINT LeftHandMiddle1
                  {
                    OFFSET 3.163495 0.240981 1.000332
                    CHANNELS 3 Zrotation Yrotation Xrotation
                    JOINT LeftHandMiddle2
                    {
                      OFFSET 6.19078 -0.259278 -1.002548
                      CHANNELS 3 Zrotation Yrotation Xrotation
                      JOINT LeftHandMiddle3
                      {
                        OFFSET 4.35652 -4e-06 -1e-06
                        CHANNELS 3 Zrotation Yrotation Xrotation
                        JOINT LeftHandMiddle4
                        {
                          OFFSET 2.996877 -8e-06 0.0
                          CHANNELS 3 Zrotation Yrotation Xrotation
                          JOINT LeftHandMiddleEnd
                          {
                            OFFSET 2.304287 -0.294569 -0.031741
                            CHANNELS 3 Zrotation Yrotation Xrotation
                          }
                        }
                      }
                    }
                  }
                  JOINT LeftHandRing1
                  {
                    OFFSET 2.882643 -0.053652 -0.322543
                    CHANNELS 3 Zrotation Yrotation Xrotation
                    JOINT LeftHandRing2
                    {
                      OFFSET 5.854541 -0.486202 -1.373841
                      CHANNELS 3 Zrotation Yrotation Xrotation
                      JOINT LeftHandRing3
                      {
                        OFFSET 4.350578 0.0 3e-06
                        CHANNELS 3 Zrotation Yrotation Xrotation
                        JOINT LeftHandRing4
                        {
                          OFFSET 2.651321 7e-06 2e-06
                          CHANNELS 3 Zrotation Yrotation Xrotation
                          JOINT LeftHandRingEnd
                          {
                            OFFSET 1.936105 0.077687 -7.1e-05
                            CHANNELS 3 Zrotation Yrotation Xrotation
                          }
                        }
                      }
                    }
                  }
                  JOINT LeftHandPinky1
                  {
                    OFFSET 2.8655 -0.310005 -1.600378
                    CHANNELS 3 Zrotation Yrotation Xrotation
                    JOINT LeftHandPinky2
                    {
                      OFFSET 5.087849 -1.331141 -1.77123
                      CHANNELS 3 Zrotation Yrotation Xrotation
                      JOINT LeftHandPinky3
                      {
                        OFFSET 3.070974 4e-06 0.0
                        CHANNELS 3 Zrotation Yrotation Xrotation
                        JOINT LeftHandPinky4
                        {
                          OFFSET 1.549672 0.0 1e-06
                          CHANNELS 3 Zrotation Yrotation Xrotation
                          JOINT LeftHandPinkyEnd
                          {
                            OFFSET 1.944893 -0.157802 0.057219
                            CHANNELS 3 Zrotation Yrotation Xrotation
                          }
                        }
                      }
                    }
                  }
                }
              }
            }
          }
          JOINT RightShoulder
          {
            OFFSET -1.380118 23.180309 5.214158
            CHANNELS 3 Zrotation Yrotation Xrotation
            JOINT RightArm
            {
              OFFSET -15.037196 1.2e-05 -5.545604
              CHANNELS 3 Zrotation Yrotation Xrotation
              JOINT RightForeArm
              {
                OFFSET -28.736639 2e-06 -0.002597
                CHANNELS 3 Zrotation Yrotation Xrotation
                JOINT RightHand
                {
                  OFFSET -27.133619 -0.0 0.002613
                  CHANNELS 3 Zrotation Yrotation Xrotation
                  JOINT RightHandThumb1
                  {
                    OFFSET -2.274032 -1.383988 3.163127
                    CHANNELS 3 Zrotation Yrotation Xrotation
                    JOINT RightHandThumb2
                    {
                      OFFSET -4.011429 -1.827466 1.640914
                      CHANNELS 3 Zrotation Yrotation Xrotation
                      JOINT RightHandThumb3
                      {
                        OFFSET -2.794935 -4e-06 -3e-06
                        CHANNELS 3 Zrotation Yrotation Xrotation
                        JOINT RightHandThumbEnd
                        {
                          OFFSET -3.183852 4e-06 1e-06
                          CHANNELS 3 Zrotation Yrotation Xrotation
                        }
                      }
                    }
                  }
                  JOINT RightHandIndex1
                  {
                    OFFSET -3.253266 -0.520057 2.282866
                    CHANNELS 3 Zrotation Yrotation Xrotation
                    JOINT RightHandIndex2
                    {
                      OFFSET -6.341917 0.012471 0.178266
                      CHANNELS 3 Zrotation Yrotation Xrotation
                      JOINT RightHandIndex3
                      {
                        OFFSET -3.654871 -8e-06 -0.0
                        CHANNELS 3 Zrotation Yrotation Xrotation
                        JOINT RightHandIndex4
                        {
                          OFFSET -2.327586 0.0 1e-06
                          CHANNELS 3 Zrotation Yrotation Xrotation
                          JOINT RightHandIndexEnd
                          {
                            OFFSET -2.76179 -0.180656 -0.113078
                            CHANNELS 3 Zrotation Yrotation Xrotation
                          }
                        }
                      }
                    }
                  }
                  JOINT RightHandMiddle1
                  {
                    OFFSET -3.168106 0.246593 1.00103
                    CHANNELS 3 Zrotation Yrotation Xrotation
                    JOINT RightHandMiddle2
                    {
                      OFFSET -6.180828 -0.258836 -1.000895
                      CHANNELS 3 Zrotation Yrotation Xrotation
                      JOINT RightHandMiddle3
                      {
                        OFFSET -4.348901 0.0 -0.0
                        CHANNELS 3 Zrotation Yrotation Xrotation
                        JOINT RightHandMiddle4
                        {
                          OFFSET -3.00024 -4e-06 -2e-06
                          CHANNELS 3 Zrotation Yrotation Xrotation
                          JOINT RightHandMiddleEnd
                          {
                            OFFSET -2.30252 -0.29437 -0.031706
                            CHANNELS 3 Zrotation Yrotation Xrotation
                          }
                        }
                      }
                    }
                  }
                  JOINT RightHandRing1
                  {
                    OFFSET -2.88569 -0.067952 -0.308858
                    CHANNELS 3 Zrotation Yrotation Xrotation
                    JOINT RightHandRing2
                    {
                      OFFSET -5.854198 -0.48613 -1.373731
                      CHANNELS 3 Zrotation Yrotation Xrotation
                      JOINT RightHandRing3
                      {
                        OFFSET -4.33881 -4e-06 -0.0
                        CHANNELS 3 Zrotation Yrotation Xrotation
                        JOINT RightHandRing4
                        {
                          OFFSET -2.654903 -4e-06 4e-06
                          CHANNELS 3 Zrotation Yrotation Xrotation
                          JOINT RightHandRingEnd
                          {
                            OFFSET -1.933568 0.077527 -5.2e-05
                            CHANNELS 3 Zrotation Yrotation Xrotation
                          }
                        }
                      }
                    }
                  }
                  JOINT RightHandPinky1
                  {
                    OFFSET -2.866425 -0.342796 -1.584145
                    CHANNELS 3 Zrotation Yrotation Xrotation
                    JOINT RightHandPinky2
                    {
                      OFFSET -5.091371 -1.332055 -1.772385
                      CHANNELS 3 Zrotation Yrotation Xrotation
                      JOINT RightHandPinky3
                      {
                        OFFSET -3.062664 -4e-06 1e-06
                        CHANNELS 3 Zrotation Yrotation Xrotation
                        JOINT RightHandPinky4
                        {
                          OFFSET -1.546529 4e-06 -2e-06
                          CHANNELS 3 Zrotation Yrotation Xrotation
                          JOINT RightHandPinkyEnd
                          {
                            OFFSET -1.945119 -0.157718 0.057211
                            CHANNELS 3 Zrotation Yrotation Xrotation
                          }
                        }
                      }
                    }
                  }
                }
              }
            }
          }
        }
      }
    }
    JOINT LeftLeg
    {
      OFFSET 10.043214 -8.434526 2.595655
      CHANNELS 3 Zrotation Yrotation Xrotation
      JOINT LeftShin
      {
        OFFSET -1e-06 -43.221752 -0.802913
        CHANNELS 3 Zrotation Yrotation Xrotation
        JOINT LeftFoot
        {
          OFFSET 1e-06 -42.155094 -3.481523
          CHANNELS 3 Zrotation Yrotation Xrotation
          JOINT LeftToeBase
          {
            OFFSET 0.0 -5.059472 13.231529
            CHANNELS 3 Zrotation Yrotation Xrotation
            JOINT LeftToeEnd
            {
              OFFSET -0.009607 -1.647619 6.513017
              CHANNELS 3 Zrotation Yrotation Xrotation
            }
          }
        }
      }
    }
    JOINT RightLeg
    {
      OFFSET -10.047278 -8.29526 2.620317
      CHANNELS 3 Zrotation Yrotation Xrotation
      JOINT RightShin
      {
        OFFSET 1e-06 -43.362206 -0.805556
        CHANNELS 3 Zrotation Yrotation Xrotation
        JOINT RightFoot
        {
          OFFSET 2e-06 -42.117393 -3.478398
          CHANNELS 3 Zrotation Yrotation Xrotation
          JOINT RightToeBase
          {
            OFFSET -0.0 -5.079609 13.284196
            CHANNELS 3 Zrotation Yrotation Xrotation
            JOINT RightToeEnd
            {
              OFFSET 0.009532 -1.634378 6.460591
              CHANNELS 3 Zrotation Yrotation Xrotation
            }
          }
        }
      }
    }
  }
}
MOTION
Frames: 4
Frame Time: 0.03333333333333333
0.0 0.0 0.0 0.0 -0.0 0.0 -0.636978 47.143372 3.948957 -7.98515 -0.015468 54.004307 -0.318668 -1.049634 19.867708 -0.062219 -0.251791 2.565375 4.361748 -1.124557 8.151805 -1.809743 1.626092 -14.959337 2.442637 4.722497 -3.640025 5.885606 5.871378 -6.303267 7.7e-05 -2.3e-05 6e-06 0.015467 -0.026749 -0.161725 0.717066 -3.746965 -10.561354 -0.686634 3.694221 -10.44057 18.966856 -8.852308 3.903702 -21.642458 -52.410969 -9.464712 -0.572825 -27.119518 0.915732 76.440643 5.806689 -4.832147 -5.882111 9.86129 0.70259 -10.93688 -0.360574 7.15621 -0.0 8.774829 -2e-06 -15.512383 17.72702 7.085666 -1.844033 2.498506 -2.507278 -10.163608 4.678947 4.621112 -20.976038 -0.0 4e-06 -21.226303 2.451701 -3.594002 -0.0 -5e-06 -1e-06 -1.362683 2.240799 -0.746324 -21.33493 0.584911 3.008327 -13.821222 -1e-06 3e-06 -23.887188 -0.249076 -0.839483 -60.316753 2.505923 -0.689551 -0.294025 1.679688 0.833256 -14.218219 0.093215 1.300582 -34.212074 -0.28756 0.967173 -20.033228 0.964539 1.212844 -0.0 -0.0 0.0 -3.44039 0.788234 0.501657 -15.928201 -3.16731 2.99971 -6.338832 -0.0 2e-06 -18.123461 3.648186 -4.905673 -5e-06 1e-06 -2e-06 -14.833858 25.95348 1.733466 10.75477 61.71294 -17.030859 1.487056 18.765881 0.474681 -78.167702 1.480743 -5.106257 2.243544 -5.25504 -3.180159 14.282898 -0.826596 6.952507 -0.0 -12.690609 -0.0 16.918583 -18.684183 2.632722 1.665667 -1.955922 -2.878299 4.727802 -4.170588 4.993925 11.020532 2e-06 1e-06 12.109058 -3.735717 -2.866784 -0.0 1e-06 1e-06 1.291986 -1.92855 -1.49809 14.800139 0.567468 3.865611 14.242583 -1.341738 -6.660663 19.631981 0.143923 -0.648243 50.185368 -0.497301 -6.867889 0.353029 -1.511151 -0.03194 20.222803 3.684309 2.316633 18.787287 3e-06 1e-06 10.751636 -0.47987 1.397907 -1e-06 0.0 -1e-06 3.273809 0.305947 -0.580111 21.486826 11.830376 2.266136 8.162933 0.0 -1e-06 18.399092 -3.798987 -4.940577 3e-06 1e-06 -2e-06 7.922139 17.428358 -59.073898 -0.476482 0.555898 114.776863 4.876146 -16.837555 0.315897 1.563998 -1.668133 -11.043629 -0.0 0.0 2e-06 1.190515 3.525851 -60.55452 0.293308 0.296705 109.795853 -7.172994 7.459599 12.525878 -1.414219 0.906717 -9.017176 -0.0 -0.0 -1e-06 
0.0 0.0 0.0 0.0 -0.0 0.0 -0.667935 47.152084 4.006252 -8.145834 0.043018 53.934483 -0.124556 -1.05275 19.814569 -0.039557 -0.169367 2.46218 4.401452 -1.021797 8.229622 -1.840088 1.261586 -14.979942 2.498782 4.789492 -3.646345 5.908908 5.90017 -6.021535 7.6e-05 -2.2e-05 6e-06 -0.003192 -0.026279 -0.183232 0.687678 -3.742821 -10.544843 -0.691612 3.687644 -10.435724 18.684881 -8.97089 4.179533 -21.630688 -52.741879 -9.721683 -0.730091 -26.464415 0.870894 76.544243 5.312001 -5.284017 -5.882106 9.861283 0.70259 -10.936866 -0.360576 7.156204 0.0 8.774821 -1e-06 -15.472865 17.801538 7.061571 -1.844032 2.498504 -2.507277 -10.163596 4.678943 4.621109 -20.976017 -4e-06 3e-06 -21.226282 2.451697 -3.593999 -0.0 -6e-06 -1e-06 -1.362682 2.240797 -0.746323 -21.334909 0.584909 3.008323 -13.821213 -2e-06 2e-06 -23.887165 -0.249079 -0.839482 -60.422695 2.432855 -0.65422 -0.294025 1.679687 0.833255 -14.218203 0.093214 1.30058 -34.212036 -0.287563 0.96717 -20.033207 0.964537 1.212844 -0.0 0.0 0.0 -3.440388 0.788234 0.501655 -15.928183 -3.167308 2.999707 -6.338823 -1e-06 1e-06 -18.123442 3.648182 -4.905669 -5e-06 1e-06 -1e-06 -14.876943 26.09461 1.898621 10.656817 61.713764 -17.136055 1.380347 18.4415 0.439166 -77.783226 1.697464 -5.649326 2.243541 -5.25504 -3.180158 14.282892 -0.826594 6.952504 -1e-06 -12.690608 -4e-06 16.782789 -18.596617 2.671298 1.665666 -1.955922 -2.878299 4.727799 -4.170586 4.993923 11.020525 2e-06 1e-06 12.109052 -3.735718 -2.866783 -1e-06 -0.0 1e-06 1.291985 -1.928549 -1.498088 14.800129 0.567469 3.865609 14.242569 -1.341739 -6.660656 19.631969 0.143924 -0.648242 50.17749 -0.454554 -6.797347 0.353029 -1.511152 -0.031941 20.22279 3.68431 2.316635 18.787271 4e-06 2e-06 10.751629 -0.47987 1.397907 -1e-06 -0.0 -1e-06 3.273806 0.305948 -0.580109 21.486818 11.830378 2.266139 8.162927 1e-06 1e-06 18.399084 -3.798987 -4.940574 3e-06 0.0 -1e-06 8.097409 17.360544 -58.920601 -0.502212 0.479455 114.705162 5.255434 -17.120714 0.249876 1.498914 -1.685072 -10.852711 -0.0 0.0 2e-06 1.35795 3.485766 -60.433815 0.236178 0.317577 109.590569 -7.309739 7.29932 13.131704 -1.429602 0.913684 -8.551853 0.0 0.0 -2e-06 
0.0 0.0 0.0 0.0 -0.0 0.0 -0.708328 47.172115 3.987397 -8.101475 0.015868 53.878963 -0.031329 -1.027107 19.769737 -0.006555 -0.124675 2.389715 4.389349 -1.013041 8.30023 -1.746637 0.985003 -14.933928 2.436919 4.834762 -3.669895 5.950854 5.906631 -5.771787 7.7e-05 -2.2e-05 7e-06 -0.019341 -0.02159 -0.186244 0.669475 -3.746166 -10.579808 -0.703792 3.696625 -10.468945 18.602346 -9.204736 4.412028 -21.667152 -52.805019 -9.856425 -0.777517 -26.118958 0.86138 76.667664 5.278075 -5.740643 -5.882111 9.86129 0.70259 -10.93688 -0.360575 7.15621 2e-06 8.77483 -2e-06 -15.398348 17.882118 7.077358 -1.844034 2.498506 -2.507279 -10.16361 4.678948 4.621112 -20.976042 -1e-06 4e-06 -21.226307 2.4517 -3.594002 -0.0 -6e-06 0.0 -1.362683 2.2408 -0.746323 -21.33493 0.584911 3.008326 -13.821226 -2e-06 3e-06 -23.887192 -0.249077 -0.839482 -60.495411 2.429781 -0.616834 -0.294025 1.679687 0.833255 -14.21822 0.093216 1.300582 -34.212074 -0.287561 0.967172 -20.03323 0.964538 1.212844 -0.0 -0.0 -0.0 -3.440392 0.788234 0.501656 -15.928201 -3.16731 2.999709 -6.338833 -1e-06 1e-06 -18.123459 3.648185 -4.905673 -5e-06 0.0 -1e-06 -14.971708 26.233627 2.072358 10.430362 61.603916 -17.461205 1.264299 18.284281 0.402769 -77.673164 1.921721 -5.730538 2.243543 -5.25504 -3.180158 14.282904 -0.826598 6.952507 -0.0 -12.690613 -2e-06 16.705767 -18.534166 2.68053 1.665667 -1.955923 -2.878299 4.727804 -4.17059 4.993926 11.020536 1e-06 0.0 12.109064 -3.735721 -2.866786 -1e-06 -0.0 -1e-06 1.291986 -1.928551 -1.498089 14.80014 0.567467 3.865611 14.242584 -1.341742 -6.660659 19.631985 0.14392 -0.648244 50.129612 -0.459215 -6.8155 0.35303 -1.51115 -0.031939 20.222811 3.684309 2.316635 18.787292 1e-06 -0.0 10.751639 -0.47987 1.397907 -1e-06 -0.0 -1e-06 3.27381 0.305947 -0.58011 21.486834 11.830379 2.266139 8.162934 1e-06 -1e-06 18.399099 -3.798989 -4.94058 3e-06 1e-06 -2e-06 8.049935 17.127264 -58.876499 -0.520101 0.419802 114.72979 5.58652 -17.224459 -0.182543 1.459183 -1.675849 -10.939129 0.0 0.0 2e-06 1.402899 3.371255 -60.416016 0.203184 0.303808 109.556847 -7.294236 7.19076 13.50526 -1.428009 0.92117 -8.309222 -0.0 0.0 -1e-06 
0.0 0.0 0.0 0.0 -0.0 0.0 -0.752507 47.220791 3.92713 -7.985852 -0.002046 53.897205 0.011217 -1.004153 19.713768 0.012658 -0.114929 2.342311 4.428318 -1.084125 8.32822 -1.617999 0.800371 -14.854421 2.375721 4.878154 -3.669733 5.937952 5.935983 -5.562108 7.7e-05 -2.2e-05 7e-06 -0.031578 -0.017304 -0.183953 0.659128 -3.753606 -10.63175 -0.717525 3.711114 -10.516408 18.518461 -9.479281 4.636982 -21.712769 -52.598389 -10.057536 -0.815931 -26.036209 0.848255 76.959259 5.22059 -5.766136 -5.882109 9.861287 0.70259 -10.936877 -0.360575 7.156208 -0.0 8.774826 -2e-06 -15.324691 17.893848 7.109275 -1.844033 2.498505 -2.507277 -10.163608 4.678946 4.621109 -20.976036 -3e-06 5e-06 -21.226295 2.451699 -3.594 -0.0 -6e-06 0.0 -1.362682 2.240798 -0.746323 -21.334925 0.58491 3.008325 -13.821221 -1e-06 3e-06 -23.887182 -0.249076 -0.839482 -60.532547 2.438587 -0.60516 -0.294025 1.679687 0.833256 -14.218215 0.093215 1.300581 -34.212067 -0.287562 0.967173 -20.033226 0.964538 1.212844 -0.0 -0.0 0.0 -3.440391 0.788233 0.501655 -15.928192 -3.16731 2.999709 -6.33883 -1e-06 1e-06 -18.123457 3.648185 -4.905671 -6e-06 1e-06 -2e-06 -15.094724 26.280741 2.149979 10.411101 61.537682 -17.643913 1.136648 18.387075 0.360005 -77.652794 2.103427 -5.487724 2.243544 -5.25504 -3.180159 14.282897 -0.826595 6.952505 1e-06 -12.690609 -2e-06 16.673145 -18.509737 2.689075 1.665667 -1.955923 -2.878299 4.727802 -4.170589 4.993925 11.020534 0.0 -0.0 12.109059 -3.735721 -2.866786 -0.0 -0.0 0.0 1.291987 -1.928551 -1.498089 14.800136 0.567467 3.865611 14.242581 -1.341741 -6.660658 19.631981 0.143922 -0.648246 50.148689 -0.46877 -6.820512 0.353029 -1.51115 -0.03194 20.222803 3.684309 2.316633 18.787287 2e-06 -0.0 10.751636 -0.47987 1.397906 -0.0 -0.0 -1e-06 3.273809 0.305947 -0.58011 21.486822 11.830377 2.266137 8.16293 1e-06 0.0 18.399094 -3.798989 -4.940579 3e-06 0.0 -1e-06 7.957243 16.803179 -58.980789 -0.538786 0.392532 114.824562 5.862978 -17.224943 -0.919481 1.455253 -1.646234 -11.284777 0.0 0.0 2e-06 1.348779 3.189432 -60.517525 0.170836 0.274071 109.616493 -7.214065 7.073942 13.472273 -1.420875 0.932134 -8.137206 0.0 0.0 -1e-06 
